<svg xmlns="http://www.w3.org/2000/svg" viewBox="0 0 687.63 467.42"><defs><style>.cls-1{fill:#fff;}.cls-2{fill:#e31100;}.cls-3{fill:#222ba9;}</style></defs><g id="Layer_2" data-name="Layer 2"><g id="Layer_1-2" data-name="Layer 1"><polygon class="cls-1" points="0 0 0 13.49 12.46 0 0 0"/><polygon class="cls-2" points="12.46 0 0 13.49 0 39.73 36.69 0 12.46 0"/><polygon class="cls-1" points="29.02 27.3 35.71 27.3 60.91 0 36.69 0 0 39.73 0 65.97 29.02 34.54 29.02 27.3"/><polygon class="cls-3" points="59.93 27.3 85.14 0 60.91 0 35.71 27.3 59.93 27.3"/><polygon class="cls-3" points="29.02 34.54 0 65.97 0 92.21 29.02 60.78 29.02 34.54"/><polygon class="cls-1" points="84.16 27.3 109.36 0 85.14 0 59.93 27.3 84.16 27.3"/><polygon class="cls-1" points="29.02 60.78 0 92.21 0 118.45 29.02 87.02 29.02 60.78"/><polygon class="cls-2" points="29.02 87.02 0 118.45 0 144.69 29.02 113.26 29.02 87.02"/><polygon class="cls-2" points="108.38 27.3 133.59 0 109.36 0 84.16 27.3 108.38 27.3"/><polygon class="cls-1" points="29.02 113.26 0 144.69 0 170.93 29.02 139.5 29.02 113.26"/><polygon class="cls-1" points="132.61 27.3 157.81 0 133.59 0 108.38 27.3 132.61 27.3"/><polygon class="cls-3" points="156.83 27.3 182.04 0 157.81 0 132.61 27.3 156.83 27.3"/><polygon class="cls-3" points="29.02 139.5 0 170.93 0 197.16 29.02 165.73 29.02 139.5"/><polygon class="cls-1" points="29.02 165.73 0 197.16 0 223.4 29.02 191.97 29.02 165.73"/><polygon class="cls-1" points="181.06 27.3 206.26 0 182.04 0 156.83 27.3 181.06 27.3"/><polygon class="cls-2" points="29.02 191.97 0 223.4 0 249.64 29.02 218.21 29.02 191.97"/><polygon class="cls-2" points="205.29 27.3 230.49 0 206.26 0 181.06 27.3 205.29 27.3"/><polygon class="cls-1" points="29.02 218.21 0 249.64 0 275.88 29.02 244.45 29.02 218.21"/><polygon class="cls-1" points="229.51 27.3 254.72 0 230.49 0 205.29 27.3 229.51 27.3"/><polygon class="cls-3" points="29.02 244.45 0 275.88 0 302.12 29.02 270.69 29.02 244.45"/><polygon class="cls-3" points="253.74 27.3 278.94 0 254.72 0 229.51 27.3 253.74 27.3"/><polygon class="cls-1" points="29.02 270.69 0 302.12 0 328.36 29.02 296.93 29.02 270.69"/><polygon class="cls-1" points="277.96 27.3 303.17 0 278.94 0 253.74 27.3 277.96 27.3"/><polygon class="cls-2" points="302.19 27.3 327.39 0 303.17 0 277.96 27.3 302.19 27.3"/><polygon class="cls-2" points="29.02 296.93 0 328.36 0 354.59 29.02 323.16 29.02 296.93"/><polygon class="cls-1" points="326.41 27.3 351.62 0 327.39 0 302.19 27.3 326.41 27.3"/><polygon class="cls-1" points="29.02 323.16 0 354.59 0 380.83 29.02 349.4 29.02 323.16"/><polygon class="cls-3" points="29.02 349.4 0 380.83 0 407.07 29.02 375.64 29.02 349.4"/><polygon class="cls-3" points="350.64 27.3 375.84 0 351.62 0 326.41 27.3 350.64 27.3"/><polygon class="cls-1" points="374.87 27.3 400.07 0 375.84 0 350.64 27.3 374.87 27.3"/><polygon class="cls-1" points="29.02 375.64 0 407.07 0 433.31 29.02 401.88 29.02 375.64"/><polygon class="cls-2" points="399.09 27.3 424.3 0 400.07 0 374.87 27.3 399.09 27.3"/><polygon class="cls-2" points="29.02 401.88 0 433.31 0 459.55 29.02 428.12 29.02 401.88"/><polygon class="cls-1" points="29.02 440.12 29.02 428.12 0 459.55 0 467.42 16.95 467.42 42.16 440.12 29.02 440.12"/><polygon class="cls-1" points="423.32 27.3 448.52 0 424.3 0 399.09 27.3 423.32 27.3"/><polygon class="cls-3" points="447.54 27.3 472.75 0 448.52 0 423.32 27.3 447.54 27.3"/><polygon class="cls-3" points="42.16 440.12 16.95 467.42 41.18 467.42 66.39 440.12 42.16 440.12"/><polygon class="cls-1" points="66.39 440.12 41.18 467.42 65.41 467.42 90.61 440.12 66.39 440.12"/><polygon class="cls-1" points="471.77 27.3 496.97 0 472.75 0 447.54 27.3 471.77 27.3"/><polygon class="cls-2" points="90.61 440.12 65.41 467.42 89.63 467.42 114.84 440.12 90.61 440.12"/><polygon class="cls-2" points="495.99 27.3 521.2 0 496.97 0 471.77 27.3 495.99 27.3"/><polygon class="cls-1" points="114.84 440.12 89.63 467.42 113.86 467.42 139.06 440.12 114.84 440.12"/><polygon class="cls-1" points="520.22 27.3 545.42 0 521.2 0 495.99 27.3 520.22 27.3"/><polygon class="cls-3" points="139.06 440.12 113.86 467.42 138.08 467.42 163.29 440.12 139.06 440.12"/><polygon class="cls-3" points="544.44 27.3 569.65 0 545.42 0 520.22 27.3 544.44 27.3"/><polygon class="cls-1" points="163.29 440.12 138.08 467.42 162.31 467.42 187.51 440.12 163.29 440.12"/><polygon class="cls-1" points="568.67 27.3 593.87 0 569.65 0 544.44 27.3 568.67 27.3"/><polygon class="cls-2" points="592.89 27.3 618.1 0 593.87 0 568.67 27.3 592.89 27.3"/><polygon class="cls-2" points="187.51 440.12 162.31 467.42 186.53 467.42 211.74 440.12 187.51 440.12"/><polygon class="cls-1" points="211.74 440.12 186.53 467.42 210.76 467.42 235.97 440.12 211.74 440.12"/><polygon class="cls-1" points="617.12 27.3 642.33 0 618.1 0 592.89 27.3 617.12 27.3"/><polygon class="cls-3" points="235.97 440.12 210.76 467.42 234.99 467.42 260.19 440.12 235.97 440.12"/><polygon class="cls-3" points="641.35 27.3 666.55 0 642.33 0 617.12 27.3 641.35 27.3"/><polygon class="cls-1" points="260.19 440.12 234.99 467.42 259.21 467.42 284.42 440.12 260.19 440.12"/><polygon class="cls-1" points="641.35 27.3 658.61 27.3 658.61 34.84 687.63 3.41 687.63 0 666.55 0 641.35 27.3"/><polygon class="cls-2" points="658.61 61.08 687.63 29.65 687.63 3.41 658.61 34.84 658.61 61.08"/><polygon class="cls-2" points="284.42 440.12 259.21 467.42 283.44 467.42 308.64 440.12 284.42 440.12"/><polygon class="cls-1" points="308.64 440.12 283.44 467.42 307.66 467.42 332.87 440.12 308.64 440.12"/><polygon class="cls-1" points="658.61 87.32 687.63 55.89 687.63 29.65 658.61 61.08 658.61 87.32"/><polygon class="cls-3" points="658.61 113.55 687.63 82.12 687.63 55.89 658.61 87.32 658.61 113.55"/><polygon class="cls-3" points="332.87 440.12 307.66 467.42 331.89 467.42 357.09 440.12 332.87 440.12"/><polygon class="cls-1" points="658.61 139.79 687.63 108.36 687.63 82.12 658.61 113.55 658.61 139.79"/><polygon class="cls-1" points="357.09 440.12 331.89 467.42 356.11 467.42 381.32 440.12 357.09 440.12"/><polygon class="cls-2" points="658.61 166.03 687.63 134.6 687.63 108.36 658.61 139.79 658.61 166.03"/><polygon class="cls-2" points="381.32 440.12 356.11 467.42 380.34 467.42 405.54 440.12 381.32 440.12"/><polygon class="cls-1" points="405.54 440.12 380.34 467.42 404.56 467.42 429.77 440.12 405.54 440.12"/><polygon class="cls-1" points="658.61 192.27 687.63 160.84 687.63 134.6 658.61 166.03 658.61 192.27"/><polygon class="cls-3" points="429.77 440.12 404.56 467.42 428.79 467.42 454 440.12 429.77 440.12"/><polygon class="cls-3" points="658.61 218.51 687.63 187.08 687.63 160.84 658.61 192.27 658.61 218.51"/><polygon class="cls-1" points="658.61 244.75 687.63 213.32 687.63 187.08 658.61 218.51 658.61 244.75"/><polygon class="cls-1" points="454 440.12 428.79 467.42 453.02 467.42 478.22 440.12 454 440.12"/><polygon class="cls-2" points="658.61 270.98 687.63 239.55 687.63 213.32 658.61 244.75 658.61 270.98"/><polygon class="cls-2" points="478.22 440.12 453.02 467.42 477.24 467.42 502.45 440.12 478.22 440.12"/><polygon class="cls-1" points="502.45 440.12 477.24 467.42 501.47 467.42 526.67 440.12 502.45 440.12"/><polygon class="cls-1" points="658.61 297.22 687.63 265.79 687.63 239.55 658.61 270.98 658.61 297.22"/><polygon class="cls-3" points="526.67 440.12 501.47 467.42 525.69 467.42 550.9 440.12 526.67 440.12"/><polygon class="cls-3" points="658.61 323.46 687.63 292.03 687.63 265.79 658.61 297.22 658.61 323.46"/><polygon class="cls-1" points="550.9 440.12 525.69 467.42 549.92 467.42 575.12 440.12 550.9 440.12"/><polygon class="cls-1" points="658.61 349.7 687.63 318.27 687.63 292.03 658.61 323.46 658.61 349.7"/><polygon class="cls-2" points="575.12 440.12 549.92 467.42 574.14 467.42 599.35 440.12 575.12 440.12"/><polygon class="cls-2" points="658.61 375.94 687.63 344.51 687.63 318.27 658.61 349.7 658.61 375.94"/><polygon class="cls-1" points="599.35 440.12 574.14 467.42 598.37 467.42 623.57 440.12 599.35 440.12"/><polygon class="cls-1" points="658.61 402.18 687.63 370.75 687.63 344.51 658.61 375.94 658.61 402.18"/><polygon class="cls-3" points="623.57 440.12 598.37 467.42 622.6 467.42 647.8 440.12 623.57 440.12"/><polygon class="cls-3" points="658.61 428.41 687.63 396.98 687.63 370.75 658.61 402.18 658.61 428.41"/><polygon class="cls-1" points="658.61 440.12 647.8 440.12 622.6 467.42 646.82 467.42 687.63 423.22 687.63 396.98 658.61 428.41 658.61 440.12"/><polygon class="cls-2" points="671.05 467.42 687.63 449.46 687.63 423.22 646.82 467.42 671.05 467.42"/><polygon class="cls-1" points="687.63 467.42 687.63 449.46 671.05 467.42 687.63 467.42"/></g></g></svg>