<svg xmlns="http://www.w3.org/2000/svg" viewBox="0 0 687.63 467.42"><defs><style>.cls-1{fill:#faf0e8;}.cls-2{fill:#e31100;}.cls-3{fill:#222ba9;}.cls-4{fill:#325ecc;}.cls-5{fill:#f76f6f;}.cls-6{fill:#ff0600;}</style></defs><g id="Layer_2" data-name="Layer 2"><g id="Layer_1-2" data-name="Layer 1"><g id="Layer_2-2" data-name="Layer 2"><g id="Layer_1-2-2" data-name="Layer 1-2"><polygon class="cls-1" points="0 0 0 13.49 12.46 0 0 0"/><polygon class="cls-2" points="12.46 0 0 13.49 0 39.73 36.69 0 12.46 0"/><polygon class="cls-1" points="29.02 27.3 35.71 27.3 60.91 0 36.69 0 0 39.73 0 65.97 29.02 34.54 29.02 27.3"/><polygon class="cls-3" points="59.93 27.3 85.14 0 60.91 0 35.71 27.3 59.93 27.3"/><polygon class="cls-3" points="29.02 34.54 0 65.97 0 92.21 29.02 60.78 29.02 34.54"/><polygon class="cls-1" points="84.16 27.3 109.36 0 85.14 0 59.93 27.3 84.16 27.3"/><polygon class="cls-1" points="29.02 60.78 0 92.21 0 118.45 29.02 87.02 29.02 60.78"/><polygon class="cls-2" points="29.02 87.02 0 118.45 0 144.69 29.02 113.26 29.02 87.02"/><polygon class="cls-2" points="108.38 27.3 133.59 0 109.36 0 84.16 27.3 108.38 27.3"/><polygon class="cls-1" points="29.02 113.26 0 144.69 0 170.93 29.02 139.5 29.02 113.26"/><polygon class="cls-1" points="132.61 27.3 157.81 0 133.59 0 108.38 27.3 132.61 27.3"/><polygon class="cls-3" points="156.83 27.3 182.04 0 157.81 0 132.61 27.3 156.83 27.3"/><polygon class="cls-3" points="29.02 139.5 0 170.93 0 197.16 29.02 165.73 29.02 139.5"/><polygon class="cls-1" points="29.02 165.73 0 197.16 0 223.4 29.02 191.97 29.02 165.73"/><polygon class="cls-1" points="181.06 27.3 206.26 0 182.04 0 156.83 27.3 181.06 27.3"/><polygon class="cls-2" points="29.02 191.97 0 223.4 0 249.64 29.02 218.21 29.02 191.97"/><polygon class="cls-2" points="205.29 27.3 230.49 0 206.26 0 181.06 27.3 205.29 27.3"/><polygon class="cls-1" points="29.02 218.21 0 249.64 0 275.88 29.02 244.45 29.02 218.21"/><polygon class="cls-1" points="229.51 27.3 254.72 0 230.49 0 205.29 27.3 229.51 27.3"/><polygon class="cls-3" points="29.02 244.45 0 275.88 0 302.12 29.02 270.69 29.02 244.45"/><polygon class="cls-3" points="253.74 27.3 278.94 0 254.72 0 229.51 27.3 253.74 27.3"/><polygon class="cls-1" points="29.02 270.69 0 302.12 0 328.36 29.02 296.93 29.02 270.69"/><polygon class="cls-1" points="277.96 27.3 303.17 0 278.94 0 253.74 27.3 277.96 27.3"/><polygon class="cls-2" points="302.19 27.3 327.39 0 303.17 0 277.96 27.3 302.19 27.3"/><polygon class="cls-2" points="29.02 296.93 0 328.36 0 354.59 29.02 323.16 29.02 296.93"/><polygon class="cls-1" points="326.41 27.3 351.62 0 327.39 0 302.19 27.3 326.41 27.3"/><polygon class="cls-1" points="29.02 323.16 0 354.59 0 380.83 29.02 349.4 29.02 323.16"/><polygon class="cls-3" points="29.02 349.4 0 380.83 0 407.07 29.02 375.64 29.02 349.4"/><polygon class="cls-3" points="350.64 27.3 375.84 0 351.62 0 326.41 27.3 350.64 27.3"/><polygon class="cls-1" points="374.87 27.3 400.07 0 375.84 0 350.64 27.3 374.87 27.3"/><polygon class="cls-1" points="29.02 375.64 0 407.07 0 433.31 29.02 401.88 29.02 375.64"/><polygon class="cls-2" points="399.09 27.3 424.3 0 400.07 0 374.87 27.3 399.09 27.3"/><polygon class="cls-2" points="29.02 401.88 0 433.31 0 459.55 29.02 428.12 29.02 401.88"/><polygon class="cls-1" points="29.02 440.12 29.02 428.12 0 459.55 0 467.42 16.95 467.42 42.16 440.12 29.02 440.12"/><polygon class="cls-1" points="423.32 27.3 448.52 0 424.3 0 399.09 27.3 423.32 27.3"/><polygon class="cls-3" points="447.54 27.3 472.75 0 448.52 0 423.32 27.3 447.54 27.3"/><polygon class="cls-3" points="42.16 440.12 16.95 467.42 41.18 467.42 66.39 440.12 42.16 440.12"/><polygon class="cls-1" points="66.39 440.12 41.18 467.42 65.41 467.42 90.61 440.12 66.39 440.12"/><polygon class="cls-1" points="471.77 27.3 496.97 0 472.75 0 447.54 27.3 471.77 27.3"/><polygon class="cls-2" points="90.61 440.12 65.41 467.42 89.63 467.42 114.84 440.12 90.61 440.12"/><polygon class="cls-2" points="495.99 27.3 521.2 0 496.97 0 471.77 27.3 495.99 27.3"/><polygon class="cls-1" points="114.84 440.12 89.63 467.42 113.86 467.42 139.06 440.12 114.84 440.12"/><polygon class="cls-1" points="520.22 27.3 545.42 0 521.2 0 495.99 27.3 520.22 27.3"/><polygon class="cls-3" points="139.06 440.12 113.86 467.42 138.08 467.42 163.29 440.12 139.06 440.12"/><polygon class="cls-3" points="544.44 27.3 569.65 0 545.42 0 520.22 27.3 544.44 27.3"/><polygon class="cls-1" points="163.29 440.12 138.08 467.42 162.31 467.42 187.51 440.12 163.29 440.12"/><polygon class="cls-1" points="568.67 27.3 593.87 0 569.65 0 544.44 27.3 568.67 27.3"/><polygon class="cls-2" points="592.89 27.3 618.1 0 593.87 0 568.67 27.3 592.89 27.3"/><polygon class="cls-2" points="187.51 440.12 162.31 467.42 186.53 467.42 211.74 440.12 187.51 440.12"/><polygon class="cls-1" points="211.74 440.12 186.53 467.42 210.76 467.42 235.97 440.12 211.74 440.12"/><polygon class="cls-1" points="617.12 27.3 642.33 0 618.1 0 592.89 27.3 617.12 27.3"/><polygon class="cls-3" points="235.97 440.12 210.76 467.42 234.99 467.42 260.19 440.12 235.97 440.12"/><polygon class="cls-3" points="641.35 27.3 666.55 0 642.33 0 617.12 27.3 641.35 27.3"/><polygon class="cls-1" points="260.19 440.12 234.99 467.42 259.21 467.42 284.42 440.12 260.19 440.12"/><polygon class="cls-1" points="641.35 27.3 658.61 27.3 658.61 34.84 687.63 3.41 687.63 0 666.55 0 641.35 27.3"/><polygon class="cls-2" points="658.61 61.08 687.63 29.65 687.63 3.41 658.61 34.84 658.61 61.08"/><polygon class="cls-2" points="284.42 440.12 259.21 467.42 283.44 467.42 308.64 440.12 284.42 440.12"/><polygon class="cls-1" points="308.64 440.12 283.44 467.42 307.66 467.42 332.87 440.12 308.64 440.12"/><polygon class="cls-1" points="658.61 87.32 687.63 55.89 687.63 29.65 658.61 61.08 658.61 87.32"/><polygon class="cls-3" points="658.61 113.55 687.63 82.12 687.63 55.89 658.61 87.32 658.61 113.55"/><polygon class="cls-3" points="332.87 440.12 307.66 467.42 331.89 467.42 357.09 440.12 332.87 440.12"/><polygon class="cls-1" points="658.61 139.79 687.63 108.36 687.63 82.12 658.61 113.55 658.61 139.79"/><polygon class="cls-1" points="357.09 440.12 331.89 467.42 356.11 467.42 381.32 440.12 357.09 440.12"/><polygon class="cls-2" points="658.61 166.03 687.63 134.6 687.63 108.36 658.61 139.79 658.61 166.03"/><polygon class="cls-2" points="381.32 440.12 356.11 467.42 380.34 467.42 405.54 440.12 381.32 440.12"/><polygon class="cls-1" points="405.54 440.12 380.34 467.42 404.56 467.42 429.77 440.12 405.54 440.12"/><polygon class="cls-1" points="658.61 192.27 687.63 160.84 687.63 134.6 658.61 166.03 658.61 192.27"/><polygon class="cls-3" points="429.77 440.12 404.56 467.42 428.79 467.42 454 440.12 429.77 440.12"/><polygon class="cls-3" points="658.61 218.51 687.63 187.08 687.63 160.84 658.61 192.27 658.61 218.51"/><polygon class="cls-1" points="658.61 244.75 687.63 213.32 687.63 187.08 658.61 218.51 658.61 244.75"/><polygon class="cls-1" points="454 440.12 428.79 467.42 453.02 467.42 478.22 440.12 454 440.12"/><polygon class="cls-2" points="658.61 270.98 687.63 239.55 687.63 213.32 658.61 244.75 658.61 270.98"/><polygon class="cls-2" points="478.22 440.12 453.02 467.42 477.24 467.42 502.45 440.12 478.22 440.12"/><polygon class="cls-1" points="502.45 440.12 477.24 467.42 501.47 467.42 526.67 440.12 502.45 440.12"/><polygon class="cls-1" points="658.61 297.22 687.63 265.79 687.63 239.55 658.61 270.98 658.61 297.22"/><polygon class="cls-3" points="526.67 440.12 501.47 467.42 525.69 467.42 550.9 440.12 526.67 440.12"/><polygon class="cls-3" points="658.61 323.46 687.63 292.03 687.63 265.79 658.61 297.22 658.61 323.46"/><polygon class="cls-1" points="550.9 440.12 525.69 467.42 549.92 467.42 575.12 440.12 550.9 440.12"/><polygon class="cls-1" points="658.61 349.7 687.63 318.27 687.63 292.03 658.61 323.46 658.61 349.7"/><polygon class="cls-2" points="575.12 440.12 549.92 467.42 574.14 467.42 599.35 440.12 575.12 440.12"/><polygon class="cls-2" points="658.61 375.94 687.63 344.51 687.63 318.27 658.61 349.7 658.61 375.94"/><polygon class="cls-1" points="599.35 440.12 574.14 467.42 598.37 467.42 623.57 440.12 599.35 440.12"/><polygon class="cls-1" points="658.61 402.18 687.63 370.75 687.63 344.51 658.61 375.94 658.61 402.18"/><polygon class="cls-3" points="623.57 440.12 598.37 467.42 622.6 467.42 647.8 440.12 623.57 440.12"/><polygon class="cls-3" points="658.61 428.41 687.63 396.98 687.63 370.75 658.61 402.18 658.61 428.41"/><polygon class="cls-1" points="658.61 440.12 647.8 440.12 622.6 467.42 646.82 467.42 687.63 423.22 687.63 396.98 658.61 428.41 658.61 440.12"/><polygon class="cls-2" points="671.05 467.42 687.63 449.46 687.63 423.22 646.82 467.42 671.05 467.42"/><polygon class="cls-1" points="687.63 467.42 687.63 449.46 671.05 467.42 687.63 467.42"/></g></g><g id="Layer_2-3" data-name="Layer 2"><g id="Layer_1-2-3" data-name="Layer 1-2"><path class="cls-4" d="M550.9,47.3V135h87.71V47.3Zm62.31,6.43h6.3V55h-2.4v7.82h-1.48V55h-2.42Zm-3.6,0h1.48v9h-1.48Zm-13.87,0h2.94c2.89,0,4.79,1.76,4.79,4.54s-1.89,4.51-4.79,4.51h-2.94Zm-10,0h1.48l4.45,6.72V53.73h1.5v9h-1.5l-4.45-6.71v6.73h-1.48Zm-7.45,0h5V55h-3.5V57.6h3.11v1.2h-3.11v2.76h3.5v1.21h-5Zm-8.68,2.48c0-1.58,1.26-2.57,3.1-2.57s2.95.92,3.08,2.45h-1.63a1.43,1.43,0,0,0-1.52-1.19c-.86,0-1.53.39-1.53,1.26,0,2,4.78.77,4.78,4.06,0,1.35-1.1,2.64-3.11,2.64-1.84,0-3.19-1-3.19-2.58h1.58a1.45,1.45,0,0,0,1.55,1.35h.06c1,0,1.62-.56,1.62-1.32C574.4,58.12,569.61,59.53,569.61,56.21Zm55.78,33.28A7,7,0,0,1,623.55,91c-1,.58-2,1.13-3,1.66q-2.45,1.3-4.9,2.52c-3.09,1.51-6.2,3-9.35,4.36l.24,5.43,1.79-.92a1.18,1.18,0,0,1,1.6.52l0,0,1.1,2.43a1.13,1.13,0,0,1,0,.92,1.2,1.2,0,0,1-.65.66l-3.67,1.51.11,1.45,2.16-1.11a1.27,1.27,0,0,1,.92-.05,1.15,1.15,0,0,1,.69.62l1.11,2.42a1.22,1.22,0,0,1-.65,1.58l-4,1.67.32,6.81a1.51,1.51,0,0,1-.86,1.42l-5.09,2.32a1.46,1.46,0,0,1-1.26,0,1.44,1.44,0,0,1-.7-.72,1.14,1.14,0,0,1-.09-.26l-5.22-21.66q-5.24,2.09-10.5,4c-1.64.58-3.28,1.16-4.92,1.71l.43,9.92a1.46,1.46,0,0,1-.86,1.46l-2.43,1.12a1.47,1.47,0,0,1-2-.73h0l-4.46-9.76a3.75,3.75,0,0,1-2.42-2.3,3.87,3.87,0,0,1,.13-2.7l-4.45-9.71a1.47,1.47,0,0,1,.72-2h0l2.44-1.12a1.45,1.45,0,0,1,1.62.27l7.29,6.81c1.84-1.11,3.76-2.21,5.65-3.27,2.88-1.63,5.78-3.19,8.7-4.73l-13-18a1.49,1.49,0,0,1,.33-2.07l.26-.14L581.79,71a1.48,1.48,0,0,1,1.64.27L588.37,76l3.88-2a1.18,1.18,0,0,1,1.59.51l0,.05L595,77a1.18,1.18,0,0,1-.61,1.56h0l-2.24.92,1,1,3.53-1.84a1.18,1.18,0,0,1,.92,0,1.15,1.15,0,0,1,.69.62l1.11,2.42a1.22,1.22,0,0,1,0,.92,1.13,1.13,0,0,1-.64.66l-1.84.77,4,3.68.17-.08q5.17-2.35,10.47-4.57c1.63-.68,3.25-1.34,4.9-2,.63-.24,1.27-.48,1.91-.7a10.37,10.37,0,0,1,1.21-.34,6.3,6.3,0,0,1,6.55,2.5A5.9,5.9,0,0,1,625.39,89.49Z"/><path class="cls-4" d="M602,58.33A3,3,0,0,0,599.33,55a2.83,2.83,0,0,0-.65,0h-1.47v6.61h1.47A3,3,0,0,0,602,59,3.21,3.21,0,0,0,602,58.33Z"/></g></g><g id="Layer_2-4" data-name="Layer 2"><g id="Layer_1-2-4" data-name="Layer 1-2"><path class="cls-5" d="M547.41,54.91a41.06,41.06,0,0,0-56.15,14.77c-.45.77-.87,1.55-1.27,2.34a113.18,113.18,0,0,1-16-6.17c-8.15-3.64-15.85-7.07-27-8-18.35-1.55-38,4.86-58.24,19l.53.77c20.1-14,39.47-20.33,57.65-18.85,11,.91,18.58,4.32,26.66,7.92a115.71,115.71,0,0,0,16,6.18,40.73,40.73,0,0,0-3.73,13.6C481.59,85,477.75,83.3,474,81.61c-8.15-3.64-15.84-7.08-27-8-18.38-1.54-38,4.86-58.26,19l.53.76c20.1-14,39.5-20.37,57.65-18.85,11,.92,18.58,4.32,26.66,7.93,3.87,1.73,7.81,3.49,12.19,5a41.1,41.1,0,0,0,1.84,15.38,126.48,126.48,0,0,1-13.65-5.46c-8.15-3.63-15.85-7.07-27-8-18.37-1.54-38,4.86-58.26,19l.53.77c20.18-14,39.55-20.37,57.73-18.84,11,.91,18.58,4.32,26.66,7.93a126.37,126.37,0,0,0,14.4,5.7,40.93,40.93,0,0,0,11.76,17.37c-10.64-1.42-18.32-4.85-25.76-8.18-8.15-3.64-15.85-7.08-27-8-18.37-1.53-38,4.87-58.26,19l.53.77c20.1-14,39.5-20.37,57.65-18.86,11,.92,18.58,4.33,26.66,7.93,7.83,3.5,15.93,7.12,27.45,8.43a41.65,41.65,0,0,0,5,3.42,40.89,40.89,0,0,0,20.63,5.61,41.06,41.06,0,0,0,20.76-76.51ZM492.34,70.3a39.83,39.83,0,0,1,62.62-8c-2.13,1.14-4.25,2.2-6.38,3.19a33.11,33.11,0,0,0-50.47,8.18l-.06.11c-.81-.12-1.61-.26-2.39-.41l.09-.24,1.34-.33L496,71.94l.1-1.38-1.15.76-1.28-.51.37,1.33-.64.75q-1.11-.26-2.19-.54C491.57,71.66,491.94,71,492.34,70.3Zm2.18,19.55c2.3.47,4.73.86,7.35,1.13,2.13.22,4.27.35,6.44.39l21.22,12.38c-2.49.61-5,1.1-7.46,1.49l1.19-1-.85-.49-2.06,1.71-2.59.3.77-4.28-.86-.5-.82,4.87c-1.23.11-2.45.19-3.67.25v-2.95a2,2,0,0,0,2.5-.91c.59-1,.37-2.22-1.08-3.07l-2-1.17-3.6,6.18.8.47,1.48-2.52,1,.57v3.38h.08a77.58,77.58,0,0,1-10.34-.35c-1.29-.14-2.55-.3-3.76-.49a32.67,32.67,0,0,1-3.68-15.47Zm9.56-22.37,11.93,7A78.5,78.5,0,0,1,502,74.3c-1-.1-2-.22-2.92-.36A32.18,32.18,0,0,1,504.08,67.48Zm-2.21,7.74a79,79,0,0,0,15.53,0l18.68,10.9c-.91.29-1.81.57-2.71.83l-15-8.75-.27-.15-6.75,11.57,1.26.74c-1.36,0-2.71.07-4.06,0L495.4,82.69a32.5,32.5,0,0,1,3.12-8A25.37,25.37,0,0,0,501.87,75.22Zm23.4,17.62L524,90.11a94,94,0,0,0,9.66-2.25l6.54,3.82Zm15.38-.54-5.85,10-4.3-9.22Zm-17.06-3-4.65-10,13.6,7.94q-4.5,1.22-8.95,2Zm-5.38-10.07,4.3,9.23-10.15.79ZM522.75,89l.16.34a82.67,82.67,0,0,1-9.16,1l-1-.56Zm.57,1.23,1.53,3.26,4.94-.38,4.24,9.07-18.84-11q4.09-.27,8.17-1Zm10.28,12.42c-.94.28-1.88.53-2.81.78L510.18,91.38q2,0,3.93-.12Zm8-10.85-7.16-4.18c.89-.27,1.78-.54,2.68-.84l14.75,8.61A110.69,110.69,0,0,1,535.63,102Zm-46.43-8.08,11.41,6.66c-1.56-.06-3.11-.17-4.66-.33a74.08,74.08,0,0,1-7.41-1.15,31.17,31.17,0,0,1,.7-5.18Zm22.37,23,1.44-.16-1.66,1.38Zm-4.77-4.55-1.18-.69L513,99.14l1.19.69a1.37,1.37,0,1,1-1.12,2.5l-.21-.13Zm-10.94,4.53a78,78,0,0,0,14.81.1l-.28,1.72.93.54,3.33-2.7q1.54-.21,3.09-.48l-3,5.17.8.47,3.42-5.85q2.85-.54,5.73-1.27l15.85,9.25a107.6,107.6,0,0,1-13,4.77l.35-.6-2.51-1.47,1.24-2,2.25,1.32.39-.67L533,113.64l1.2-2.07,2.57,1.42.39-.66-3.39-1.94-3.61,6.18,3.26,1.91a90.59,90.59,0,0,1-14.95,3,32.35,32.35,0,0,1-19.7-15.13c1,.14,2.05.27,3.12.38Zm45.7,7.6.46.26a32.34,32.34,0,0,1-26.81,7.55A98.6,98.6,0,0,0,547.53,114.3Zm1.18-.4-.14-.08.44-.2Zm-1.13-.65L532,104.13c.92-.25,1.85-.51,2.77-.79l.14.08.09-.15A110.81,110.81,0,0,0,552.87,96l4.9,2.86a31.83,31.83,0,0,1-3.26,7.78,33.38,33.38,0,0,1-3.67,5.09l-3.26,1.49ZM558,97.91l-4.15-2.42,2-1.07-.44-.82c-.85.46-1.69.9-2.53,1.33l-14.57-8.5a117.84,117.84,0,0,0,17.54-7.77l-.44-.82a114.43,114.43,0,0,1-18.17,8L519,75.09a97.94,97.94,0,0,0,29.44-8.5A32.28,32.28,0,0,1,558,97.87ZM517.61,74.3l-12.86-7.49a32.22,32.22,0,0,1,38.16-4.24,32.91,32.91,0,0,1,4.71,3.34A95.38,95.38,0,0,1,517.61,74.3ZM490.8,73.22c1.39.37,2.83.71,4.34,1l.13.21.06-.17c.73.15,1.47.28,2.23.4a33,33,0,0,0-3.94,14c-2.31-.52-4.48-1.14-6.55-1.81a39.23,39.23,0,0,1,3.73-13.64ZM487,87.86c1,.32,2,.63,3.08.92l-.49,1-1.37.19,1,1L489,92.3l1.22-.64,1.22.64L491.18,91l1-1-1.36-.21-.46-.92c1.05.28,2.13.55,3.24.8a33.54,33.54,0,0,0,1.09,9.14,34.1,34.1,0,0,0,2.38,6.34,70.82,70.82,0,0,1-8-1.86A39.85,39.85,0,0,1,487,87.85Zm2.47,16.51a70.66,70.66,0,0,0,8.13,1.81A33.14,33.14,0,0,0,516,121.72c-2.23.17-4.45.26-6.65.24l-.3-.23.1-1.37-1.15.76-1.27-.53.37,1.32c-1.71-.06-3.4-.17-5.09-.35a39.55,39.55,0,0,1-12.56-17.2Zm71.62,6.07a39.81,39.81,0,0,1-54.44,14.3h0a38.41,38.41,0,0,1-3.25-2.11q1.47.12,2.94.18l-.14.16,1.38.06.73,1.17.49-1.29h.11a77,77,0,0,0,9.48-.46,33.16,33.16,0,0,0,33-10c1.48-.73,3-1.49,4.45-2.29l-.44-.83c-.84.46-1.69.9-2.53,1.33a33.09,33.09,0,0,0-3.57-44.47c2.1-1,4.2-2,6.31-3.18a39.88,39.88,0,0,1,5.45,47.44Z"/><polygon class="cls-5" points="544.44 59.87 545.17 61.04 545.66 59.75 546.99 59.42 545.92 58.56 546.01 57.18 544.86 57.94 543.58 57.43 543.95 58.76 543.07 59.81 544.44 59.87"/><polygon class="cls-5" points="559.01 107.27 557.86 108.03 556.59 107.52 556.95 108.84 556.07 109.9 557.44 109.96 558.17 111.13 558.66 109.84 560 109.5 558.92 108.65 559.01 107.27"/><polygon class="cls-5" points="563.64 90.03 563.03 88.79 562.42 90.03 561.06 90.22 562.04 91.18 561.8 92.54 563.02 91.9 564.24 92.55 564.01 91.19 565 90.23 563.64 90.03"/><polygon class="cls-5" points="496.49 107.25 495.21 107.75 494.06 106.98 494.15 108.36 493.06 109.21 494.4 109.55 494.87 110.85 495.61 109.69 496.99 109.64 496.11 108.57 496.49 107.25"/><polygon class="cls-5" points="559.72 71.1 558.44 71.61 557.3 70.84 557.38 72.21 556.29 73.06 557.63 73.41 558.1 74.7 558.84 73.54 560.22 73.49 559.34 72.43 559.72 71.1"/><polygon class="cls-5" points="507.48 60.93 508.55 60.06 509.87 60.43 509.36 59.15 510.13 58.01 508.76 58.09 507.91 57.01 507.56 58.34 506.27 58.82 507.43 59.56 507.48 60.93"/><polygon class="cls-5" points="544.98 121.28 544.13 120.2 543.78 121.53 542.49 122.01 543.65 122.75 543.7 124.12 544.76 123.25 546.09 123.62 545.58 122.34 546.35 121.2 544.98 121.28"/><polygon class="cls-5" points="526.23 55.11 527.19 56.1 527.39 54.74 528.63 54.13 527.4 53.52 527.21 52.15 526.24 53.14 524.88 52.9 525.52 54.12 524.87 55.34 526.23 55.11"/><polygon class="cls-5" points="526.92 124.99 525.95 125.97 524.6 125.73 525.23 126.95 524.59 128.17 525.95 127.94 526.9 128.93 527.11 127.57 528.35 126.97 527.11 126.35 526.92 124.99"/><path class="cls-5" d="M500.75,99.5a2.15,2.15,0,0,0,3-.45l.07-.1c1.33-2.28-2.58-3.24-1.65-4.83a1.18,1.18,0,0,1,1.62-.41l.15.11a1.28,1.28,0,0,1,.67,1.59l.89.52a2.14,2.14,0,0,0-1.12-2.78,2.09,2.09,0,0,0-2.93.41.86.86,0,0,0-.07.1C500.05,96,504,96.85,503,98.51a1.25,1.25,0,0,1-1.72.39l-.12-.08a1.34,1.34,0,0,1-.69-1.77h0l-.86-.5a2.18,2.18,0,0,0,1,2.92Z"/><polygon class="cls-5" points="507.55 103.39 507.94 102.72 505.42 101.25 506.66 99.12 508.91 100.44 509.3 99.77 507.05 98.46 508.26 96.39 510.77 97.86 511.16 97.2 507.84 95.26 504.23 101.45 507.55 103.39"/><path class="cls-5" d="M525.87,114.15a3.37,3.37,0,0,0,3.94-.19l-1-.56a2.26,2.26,0,0,1-2.57,0,2.85,2.85,0,0,1,2.87-4.91,2.25,2.25,0,0,1,1.21,2.27l1,.57a3.37,3.37,0,0,0-1.77-3.55,3.66,3.66,0,0,0-3.68,6.32Z"/><path class="cls-6" d="M547.41,54.91a41.06,41.06,0,0,0-56.15,14.77c-.45.77-.87,1.55-1.27,2.34a113.18,113.18,0,0,1-16-6.17c-8.15-3.64-15.85-7.07-27-8-18.35-1.55-38,4.86-58.24,19l.53.77c20.1-14,39.47-20.33,57.65-18.85,11,.91,18.58,4.32,26.66,7.92a115.71,115.71,0,0,0,16,6.18,40.73,40.73,0,0,0-3.73,13.6C481.59,85,477.75,83.3,474,81.61c-8.15-3.64-15.84-7.08-27-8-18.38-1.54-38,4.86-58.26,19l.53.76c20.1-14,39.5-20.37,57.65-18.85,11,.92,18.58,4.32,26.66,7.93,3.87,1.73,7.81,3.49,12.19,5a41.1,41.1,0,0,0,1.84,15.38,126.48,126.48,0,0,1-13.65-5.46c-8.15-3.63-15.85-7.07-27-8-18.37-1.54-38,4.86-58.26,19l.53.77c20.18-14,39.55-20.37,57.73-18.84,11,.91,18.58,4.32,26.66,7.93a126.37,126.37,0,0,0,14.4,5.7,40.93,40.93,0,0,0,11.76,17.37c-10.64-1.42-18.32-4.85-25.76-8.18-8.15-3.64-15.85-7.08-27-8-18.37-1.53-38,4.87-58.26,19l.53.77c20.1-14,39.5-20.37,57.65-18.86,11,.92,18.58,4.33,26.66,7.93,7.83,3.5,15.93,7.12,27.45,8.43a41.65,41.65,0,0,0,5,3.42,40.89,40.89,0,0,0,20.63,5.61,41.06,41.06,0,0,0,20.76-76.51ZM492.34,70.3a39.83,39.83,0,0,1,62.62-8c-2.13,1.14-4.25,2.2-6.38,3.19a33.11,33.11,0,0,0-50.47,8.18l-.06.11c-.81-.12-1.61-.26-2.39-.41l.09-.24,1.34-.33L496,71.94l.1-1.38-1.15.76-1.28-.51.37,1.33-.64.75q-1.11-.26-2.19-.54C491.57,71.66,491.94,71,492.34,70.3Zm2.18,19.55c2.3.47,4.73.86,7.35,1.13,2.13.22,4.27.35,6.44.39l21.22,12.38c-2.49.61-5,1.1-7.46,1.49l1.19-1-.85-.49-2.06,1.71-2.59.3.77-4.28-.86-.5-.82,4.87c-1.23.11-2.45.19-3.67.25v-2.95a2,2,0,0,0,2.5-.91c.59-1,.37-2.22-1.08-3.07l-2-1.17-3.6,6.18.8.47,1.48-2.52,1,.57v3.38h.08a77.58,77.58,0,0,1-10.34-.35c-1.29-.14-2.55-.3-3.76-.49a32.67,32.67,0,0,1-3.68-15.47Zm9.56-22.37,11.93,7A78.5,78.5,0,0,1,502,74.3c-1-.1-2-.22-2.92-.36A32.18,32.18,0,0,1,504.08,67.48Zm-2.21,7.74a79,79,0,0,0,15.53,0l18.68,10.9c-.91.29-1.81.57-2.71.83l-15-8.75-.27-.15-6.75,11.57,1.26.74c-1.36,0-2.71.07-4.06,0L495.4,82.69a32.5,32.5,0,0,1,3.12-8A25.37,25.37,0,0,0,501.87,75.22Zm23.4,17.62L524,90.11a94,94,0,0,0,9.66-2.25l6.54,3.82Zm15.38-.54-5.85,10-4.3-9.22Zm-17.06-3-4.65-10,13.6,7.94q-4.5,1.22-8.95,2Zm-5.38-10.07,4.3,9.23-10.15.79ZM522.75,89l.16.34a82.67,82.67,0,0,1-9.16,1l-1-.56Zm.57,1.23,1.53,3.26,4.94-.38,4.24,9.07-18.84-11q4.09-.27,8.17-1Zm10.28,12.42c-.94.28-1.88.53-2.81.78L510.18,91.38q2,0,3.93-.12Zm8-10.85-7.16-4.18c.89-.27,1.78-.54,2.68-.84l14.75,8.61A110.69,110.69,0,0,1,535.63,102Zm-46.43-8.08,11.41,6.66c-1.56-.06-3.11-.17-4.66-.33a74.08,74.08,0,0,1-7.41-1.15,31.17,31.17,0,0,1,.7-5.18Zm22.37,23,1.44-.16-1.66,1.38Zm-4.77-4.55-1.18-.69L513,99.14l1.19.69a1.37,1.37,0,1,1-1.12,2.5l-.21-.13Zm-10.94,4.53a78,78,0,0,0,14.81.1l-.28,1.72.93.54,3.33-2.7q1.54-.21,3.09-.48l-3,5.17.8.47,3.42-5.85q2.85-.54,5.73-1.27l15.85,9.25a107.6,107.6,0,0,1-13,4.77l.35-.6-2.51-1.47,1.24-2,2.25,1.32.39-.67L533,113.64l1.2-2.07,2.57,1.42.39-.66-3.39-1.94-3.61,6.18,3.26,1.91a90.59,90.59,0,0,1-14.95,3,32.35,32.35,0,0,1-19.7-15.13c1,.14,2.05.27,3.12.38Zm45.7,7.6.46.26a32.34,32.34,0,0,1-26.81,7.55A98.6,98.6,0,0,0,547.53,114.3Zm1.18-.4-.14-.08.44-.2Zm-1.13-.65L532,104.13c.92-.25,1.85-.51,2.77-.79l.14.08.09-.15A110.81,110.81,0,0,0,552.87,96l4.9,2.86a31.83,31.83,0,0,1-3.26,7.78,33.38,33.38,0,0,1-3.67,5.09l-3.26,1.49ZM558,97.91l-4.15-2.42,2-1.07-.44-.82c-.85.46-1.69.9-2.53,1.33l-14.57-8.5a117.84,117.84,0,0,0,17.54-7.77l-.44-.82a114.43,114.43,0,0,1-18.17,8L519,75.09a97.94,97.94,0,0,0,29.44-8.5A32.28,32.28,0,0,1,558,97.87ZM517.61,74.3l-12.86-7.49a32.22,32.22,0,0,1,38.16-4.24,32.91,32.91,0,0,1,4.71,3.34A95.38,95.38,0,0,1,517.61,74.3ZM490.8,73.22c1.39.37,2.83.71,4.34,1l.13.21.06-.17c.73.15,1.47.28,2.23.4a33,33,0,0,0-3.94,14c-2.31-.52-4.48-1.14-6.55-1.81a39.23,39.23,0,0,1,3.73-13.64ZM487,87.86c1,.32,2,.63,3.08.92l-.49,1-1.37.19,1,1L489,92.3l1.22-.64,1.22.64L491.18,91l1-1-1.36-.21-.46-.92c1.05.28,2.13.55,3.24.8a33.54,33.54,0,0,0,1.09,9.14,34.1,34.1,0,0,0,2.38,6.34,70.82,70.82,0,0,1-8-1.86A39.85,39.85,0,0,1,487,87.85Zm2.47,16.51a70.66,70.66,0,0,0,8.13,1.81A33.14,33.14,0,0,0,516,121.72c-2.23.17-4.45.26-6.65.24l-.3-.23.1-1.37-1.15.76-1.27-.53.37,1.32c-1.71-.06-3.4-.17-5.09-.35a39.55,39.55,0,0,1-12.56-17.2Zm71.62,6.07a39.81,39.81,0,0,1-54.44,14.3h0a38.41,38.41,0,0,1-3.25-2.11q1.47.12,2.94.18l-.14.16,1.38.06.73,1.17.49-1.29h.11a77,77,0,0,0,9.48-.46,33.16,33.16,0,0,0,33-10c1.48-.73,3-1.49,4.45-2.29l-.44-.83c-.84.46-1.69.9-2.53,1.33a33.09,33.09,0,0,0-3.57-44.47c2.1-1,4.2-2,6.31-3.18a39.88,39.88,0,0,1,5.45,47.44Z"/><polygon class="cls-6" points="544.44 59.87 545.17 61.04 545.66 59.75 546.99 59.42 545.92 58.56 546.01 57.18 544.86 57.94 543.58 57.43 543.95 58.76 543.07 59.81 544.44 59.87"/><polygon class="cls-6" points="559.01 107.27 557.86 108.03 556.59 107.52 556.95 108.84 556.07 109.9 557.44 109.96 558.17 111.13 558.66 109.84 560 109.5 558.92 108.65 559.01 107.27"/><polygon class="cls-6" points="563.64 90.03 563.03 88.79 562.42 90.03 561.06 90.22 562.04 91.18 561.8 92.54 563.02 91.9 564.24 92.55 564.01 91.19 565 90.23 563.64 90.03"/><polygon class="cls-6" points="496.49 107.25 495.21 107.75 494.06 106.98 494.15 108.36 493.06 109.21 494.4 109.55 494.87 110.85 495.61 109.69 496.99 109.64 496.11 108.57 496.49 107.25"/><polygon class="cls-6" points="559.72 71.1 558.44 71.61 557.3 70.84 557.38 72.21 556.29 73.06 557.63 73.41 558.1 74.7 558.84 73.54 560.22 73.49 559.34 72.43 559.72 71.1"/><polygon class="cls-6" points="507.48 60.93 508.55 60.06 509.87 60.43 509.36 59.15 510.13 58.01 508.76 58.09 507.91 57.01 507.56 58.34 506.27 58.82 507.43 59.56 507.48 60.93"/><polygon class="cls-6" points="544.98 121.28 544.13 120.2 543.78 121.53 542.49 122.01 543.65 122.75 543.7 124.12 544.76 123.25 546.09 123.62 545.58 122.34 546.35 121.2 544.98 121.28"/><polygon class="cls-6" points="526.23 55.11 527.19 56.1 527.39 54.74 528.63 54.13 527.4 53.52 527.21 52.15 526.24 53.14 524.88 52.9 525.52 54.12 524.87 55.34 526.23 55.11"/><polygon class="cls-6" points="526.92 124.99 525.95 125.97 524.6 125.73 525.23 126.95 524.59 128.17 525.95 127.94 526.9 128.93 527.11 127.57 528.35 126.97 527.11 126.35 526.92 124.99"/><path class="cls-6" d="M500.75,99.5a2.15,2.15,0,0,0,3-.45l.07-.1c1.33-2.28-2.58-3.24-1.65-4.83a1.18,1.18,0,0,1,1.62-.41l.15.11a1.28,1.28,0,0,1,.67,1.59l.89.52a2.14,2.14,0,0,0-1.12-2.78,2.09,2.09,0,0,0-2.93.41.86.86,0,0,0-.07.1C500.05,96,504,96.85,503,98.51a1.25,1.25,0,0,1-1.72.39l-.12-.08a1.34,1.34,0,0,1-.69-1.77h0l-.86-.5a2.18,2.18,0,0,0,1,2.92Z"/><polygon class="cls-6" points="507.55 103.39 507.94 102.72 505.42 101.25 506.66 99.12 508.91 100.44 509.3 99.77 507.05 98.46 508.26 96.39 510.77 97.86 511.16 97.2 507.84 95.26 504.23 101.45 507.55 103.39"/><path class="cls-6" d="M525.87,114.15a3.37,3.37,0,0,0,3.94-.19l-1-.56a2.26,2.26,0,0,1-2.57,0,2.85,2.85,0,0,1,2.87-4.91,2.25,2.25,0,0,1,1.21,2.27l1,.57a3.37,3.37,0,0,0-1.77-3.55,3.66,3.66,0,0,0-3.68,6.32Z"/></g></g></g></g></svg>