<?xml version="1.0" encoding="utf-8"?>
<!-- Generator: Adobe Illustrator 26.0.3, SVG Export Plug-In . SVG Version: 6.00 Build 0)  -->
<svg version="1.1" id="Layer_1" xmlns="http://www.w3.org/2000/svg" xmlns:xlink="http://www.w3.org/1999/xlink" x="0px" y="0px"
	 viewBox="0 0 687.6 467.4" style="enable-background:new 0 0 687.6 467.4;" xml:space="preserve">
<style type="text/css">
	.st0{fill:#FAF0E8;}
	.st1{fill:#E31100;}
	.st2{fill:#222BA9;}
</style>
<g id="Layer_2_00000086661515443884926470000002081105702087529873_">
	<g id="Layer_1-2">
		<polygon class="st0" points="0,0 0,13.5 12.5,0 		"/>
		<polygon class="st1" points="12.5,0 0,13.5 0,39.7 36.7,0 		"/>
		<polygon class="st0" points="29,27.3 35.7,27.3 60.9,0 36.7,0 0,39.7 0,66 29,34.5 		"/>
		<polygon class="st2" points="59.9,27.3 85.1,0 60.9,0 35.7,27.3 		"/>
		<polygon class="st2" points="29,34.5 0,66 0,92.2 29,60.8 		"/>
		<polygon class="st0" points="84.2,27.3 109.4,0 85.1,0 59.9,27.3 		"/>
		<polygon class="st0" points="29,60.8 0,92.2 0,118.4 29,87 		"/>
		<polygon class="st1" points="29,87 0,118.4 0,144.7 29,113.3 		"/>
		<polygon class="st1" points="108.4,27.3 133.6,0 109.4,0 84.2,27.3 		"/>
		<polygon class="st0" points="29,113.3 0,144.7 0,170.9 29,139.5 		"/>
		<polygon class="st0" points="132.6,27.3 157.8,0 133.6,0 108.4,27.3 		"/>
		<polygon class="st2" points="156.8,27.3 182,0 157.8,0 132.6,27.3 		"/>
		<polygon class="st2" points="29,139.5 0,170.9 0,197.2 29,165.7 		"/>
		<polygon class="st0" points="29,165.7 0,197.2 0,223.4 29,192 		"/>
		<polygon class="st0" points="181.1,27.3 206.3,0 182,0 156.8,27.3 		"/>
		<polygon class="st1" points="29,192 0,223.4 0,249.6 29,218.2 		"/>
		<polygon class="st1" points="205.3,27.3 230.5,0 206.3,0 181.1,27.3 		"/>
		<polygon class="st0" points="29,218.2 0,249.6 0,275.9 29,244.4 		"/>
		<polygon class="st0" points="229.5,27.3 254.7,0 230.5,0 205.3,27.3 		"/>
		<polygon class="st2" points="29,244.4 0,275.9 0,302.1 29,270.7 		"/>
		<polygon class="st2" points="253.7,27.3 278.9,0 254.7,0 229.5,27.3 		"/>
		<polygon class="st0" points="29,270.7 0,302.1 0,328.4 29,296.9 		"/>
		<polygon class="st0" points="278,27.3 303.2,0 278.9,0 253.7,27.3 		"/>
		<polygon class="st1" points="302.2,27.3 327.4,0 303.2,0 278,27.3 		"/>
		<polygon class="st1" points="29,296.9 0,328.4 0,354.6 29,323.2 		"/>
		<polygon class="st0" points="326.4,27.3 351.6,0 327.4,0 302.2,27.3 		"/>
		<polygon class="st0" points="29,323.2 0,354.6 0,380.8 29,349.4 		"/>
		<polygon class="st2" points="29,349.4 0,380.8 0,407.1 29,375.6 		"/>
		<polygon class="st2" points="350.6,27.3 375.8,0 351.6,0 326.4,27.3 		"/>
		<polygon class="st0" points="374.9,27.3 400.1,0 375.8,0 350.6,27.3 		"/>
		<polygon class="st0" points="29,375.6 0,407.1 0,433.3 29,401.9 		"/>
		<polygon class="st1" points="399.1,27.3 424.3,0 400.1,0 374.9,27.3 		"/>
		<polygon class="st1" points="29,401.9 0,433.3 0,459.5 29,428.1 		"/>
		<polygon class="st0" points="29,440.1 29,428.1 0,459.5 0,467.4 17,467.4 42.2,440.1 		"/>
		<polygon class="st0" points="423.3,27.3 448.5,0 424.3,0 399.1,27.3 		"/>
		<polygon class="st2" points="447.5,27.3 472.8,0 448.5,0 423.3,27.3 		"/>
		<polygon class="st2" points="42.2,440.1 17,467.4 41.2,467.4 66.4,440.1 		"/>
		<polygon class="st0" points="66.4,440.1 41.2,467.4 65.4,467.4 90.6,440.1 		"/>
		<polygon class="st0" points="471.8,27.3 497,0 472.8,0 447.5,27.3 		"/>
		<polygon class="st1" points="90.6,440.1 65.4,467.4 89.6,467.4 114.8,440.1 		"/>
		<polygon class="st1" points="496,27.3 521.2,0 497,0 471.8,27.3 		"/>
		<polygon class="st0" points="114.8,440.1 89.6,467.4 113.9,467.4 139.1,440.1 		"/>
		<polygon class="st0" points="520.2,27.3 545.4,0 521.2,0 496,27.3 		"/>
		<polygon class="st2" points="139.1,440.1 113.9,467.4 138.1,467.4 163.3,440.1 		"/>
		<polygon class="st2" points="544.4,27.3 569.7,0 545.4,0 520.2,27.3 		"/>
		<polygon class="st0" points="163.3,440.1 138.1,467.4 162.3,467.4 187.5,440.1 		"/>
		<polygon class="st0" points="568.7,27.3 593.9,0 569.7,0 544.4,27.3 		"/>
		<polygon class="st1" points="592.9,27.3 618.1,0 593.9,0 568.7,27.3 		"/>
		<polygon class="st1" points="187.5,440.1 162.3,467.4 186.5,467.4 211.7,440.1 		"/>
		<polygon class="st0" points="211.7,440.1 186.5,467.4 210.8,467.4 236,440.1 		"/>
		<polygon class="st0" points="617.1,27.3 642.3,0 618.1,0 592.9,27.3 		"/>
		<polygon class="st2" points="236,440.1 210.8,467.4 235,467.4 260.2,440.1 		"/>
		<polygon class="st2" points="641.3,27.3 666.5,0 642.3,0 617.1,27.3 		"/>
		<polygon class="st0" points="260.2,440.1 235,467.4 259.2,467.4 284.4,440.1 		"/>
		<polygon class="st0" points="641.3,27.3 658.6,27.3 658.6,34.8 687.6,3.4 687.6,0 666.5,0 		"/>
		<polygon class="st1" points="658.6,61.1 687.6,29.6 687.6,3.4 658.6,34.8 		"/>
		<polygon class="st1" points="284.4,440.1 259.2,467.4 283.4,467.4 308.6,440.1 		"/>
		<polygon class="st0" points="308.6,440.1 283.4,467.4 307.7,467.4 332.9,440.1 		"/>
		<polygon class="st0" points="658.6,87.3 687.6,55.9 687.6,29.6 658.6,61.1 		"/>
		<polygon class="st2" points="658.6,113.6 687.6,82.1 687.6,55.9 658.6,87.3 		"/>
		<polygon class="st2" points="332.9,440.1 307.7,467.4 331.9,467.4 357.1,440.1 		"/>
		<polygon class="st0" points="658.6,139.8 687.6,108.4 687.6,82.1 658.6,113.6 		"/>
		<polygon class="st0" points="357.1,440.1 331.9,467.4 356.1,467.4 381.3,440.1 		"/>
		<polygon class="st1" points="658.6,166 687.6,134.6 687.6,108.4 658.6,139.8 		"/>
		<polygon class="st1" points="381.3,440.1 356.1,467.4 380.3,467.4 405.5,440.1 		"/>
		<polygon class="st0" points="405.5,440.1 380.3,467.4 404.6,467.4 429.8,440.1 		"/>
		<polygon class="st0" points="658.6,192.3 687.6,160.8 687.6,134.6 658.6,166 		"/>
		<polygon class="st2" points="429.8,440.1 404.6,467.4 428.8,467.4 454,440.1 		"/>
		<polygon class="st2" points="658.6,218.5 687.6,187.1 687.6,160.8 658.6,192.3 		"/>
		<polygon class="st0" points="658.6,244.8 687.6,213.3 687.6,187.1 658.6,218.5 		"/>
		<polygon class="st0" points="454,440.1 428.8,467.4 453,467.4 478.2,440.1 		"/>
		<polygon class="st1" points="658.6,271 687.6,239.6 687.6,213.3 658.6,244.8 		"/>
		<polygon class="st1" points="478.2,440.1 453,467.4 477.2,467.4 502.5,440.1 		"/>
		<polygon class="st0" points="502.5,440.1 477.2,467.4 501.5,467.4 526.7,440.1 		"/>
		<polygon class="st0" points="658.6,297.2 687.6,265.8 687.6,239.6 658.6,271 		"/>
		<polygon class="st2" points="526.7,440.1 501.5,467.4 525.7,467.4 550.9,440.1 		"/>
		<polygon class="st2" points="658.6,323.5 687.6,292 687.6,265.8 658.6,297.2 		"/>
		<polygon class="st0" points="550.9,440.1 525.7,467.4 549.9,467.4 575.1,440.1 		"/>
		<polygon class="st0" points="658.6,349.7 687.6,318.3 687.6,292 658.6,323.5 		"/>
		<polygon class="st1" points="575.1,440.1 549.9,467.4 574.1,467.4 599.3,440.1 		"/>
		<polygon class="st1" points="658.6,375.9 687.6,344.5 687.6,318.3 658.6,349.7 		"/>
		<polygon class="st0" points="599.3,440.1 574.1,467.4 598.4,467.4 623.6,440.1 		"/>
		<polygon class="st0" points="658.6,402.2 687.6,370.8 687.6,344.5 658.6,375.9 		"/>
		<polygon class="st2" points="623.6,440.1 598.4,467.4 622.6,467.4 647.8,440.1 		"/>
		<polygon class="st2" points="658.6,428.4 687.6,397 687.6,370.8 658.6,402.2 		"/>
		<polygon class="st0" points="658.6,440.1 647.8,440.1 622.6,467.4 646.8,467.4 687.6,423.2 687.6,397 658.6,428.4 		"/>
		<polygon class="st1" points="671,467.4 687.6,449.5 687.6,423.2 646.8,467.4 		"/>
		<polygon class="st0" points="687.6,467.4 687.6,449.5 671,467.4 		"/>
	</g>
</g>
</svg>
