<svg xmlns="http://www.w3.org/2000/svg" viewBox="0 0 95.46 95.46"><defs><style>.cls-1{fill:#325ecc;}</style></defs><g id="Layer_2" data-name="Layer 2"><g id="Layer_1-2" data-name="Layer 1"><path class="cls-1" d="M0,0V95.46H95.46V0ZM67.82,7h6.85V8.34H72.06v8.51H70.45V8.34H67.82ZM63.9,7h1.61v9.82H63.9ZM48.8,7H52c3.15,0,5.21,1.91,5.21,4.94S55.16,16.85,52,16.85H48.8ZM37.92,7h1.61l4.84,7.31V7H46v9.83H44.37L39.53,9.52v7.33H37.92ZM29.81,7h5.42V8.33H31.42v2.88h3.39v1.31H31.42v3h3.81v1.32H29.81ZM20.36,9.7c0-1.72,1.37-2.8,3.38-2.8s3.21,1,3.35,2.67H25.31a1.55,1.55,0,0,0-1.65-1.3c-.94,0-1.66.43-1.66,1.37,0,2.22,5.2.84,5.2,4.42,0,1.47-1.2,2.88-3.39,2.88-2,0-3.47-1.07-3.47-2.81h1.72a1.58,1.58,0,0,0,1.75,1.46c1.13,0,1.77-.61,1.77-1.44C25.58,11.78,20.36,13.31,20.36,9.7ZM81.07,45.92a7.69,7.69,0,0,1-2,1.68c-1.06.64-2.15,1.23-3.24,1.81q-2.66,1.43-5.34,2.74c-3.36,1.65-6.75,3.25-10.17,4.75l.26,5.91,1.95-1a1.29,1.29,0,0,1,1.76.61l1.2,2.64a1.27,1.27,0,0,1,0,1,1.32,1.32,0,0,1-.71.72l-4,1.64L60.9,70l2.36-1.2a1.31,1.31,0,0,1,1-.06,1.29,1.29,0,0,1,.75.68l1.21,2.63a1.31,1.31,0,0,1,0,1,1.26,1.26,0,0,1-.71.72l-4.39,1.82L61.47,83a1.62,1.62,0,0,1-.94,1.54L55,87.07a1.63,1.63,0,0,1-1.38,0,1.6,1.6,0,0,1-.76-.78,1.42,1.42,0,0,1-.1-.29L47.08,62.43q-5.69,2.26-11.43,4.32c-1.78.63-3.56,1.26-5.35,1.86l.47,10.8A1.6,1.6,0,0,1,29.83,81l-2.64,1.21a1.61,1.61,0,0,1-2.14-.79L20.2,70.8a4.06,4.06,0,0,1-2.63-2.51,4.13,4.13,0,0,1,.14-2.93L12.86,54.79a1.61,1.61,0,0,1,.79-2.14l2.65-1.21a1.59,1.59,0,0,1,1.77.29L26,59.14c2-1.21,4.09-2.4,6.15-3.56,3.13-1.77,6.29-3.47,9.47-5.14L27.44,30.79a1.61,1.61,0,0,1,.64-2.41l5.54-2.54a1.61,1.61,0,0,1,1.78.29l5.38,5.06L45,29a1.29,1.29,0,0,1,1.76.61L48,32.29A1.29,1.29,0,0,1,47.3,34l-2.44,1L46,36.1l3.85-2a1.27,1.27,0,0,1,1-.06,1.29,1.29,0,0,1,.75.68l1.21,2.63a1.31,1.31,0,0,1,0,1,1.24,1.24,0,0,1-.7.72l-2,.84,4.31,4,.18-.08Q60.23,41.26,66,38.85c1.77-.74,3.54-1.45,5.33-2.12.69-.26,1.38-.52,2.08-.76a10.37,10.37,0,0,1,1.32-.37,6.87,6.87,0,0,1,7.13,2.72A6.42,6.42,0,0,1,81.07,45.92Z"/><path class="cls-1" d="M55.57,12A3.28,3.28,0,0,0,52,8.34h-1.6v7.19H52A3.23,3.23,0,0,0,55.57,12Z"/></g></g></svg>