<svg xmlns="http://www.w3.org/2000/svg" viewBox="0 0 392 560"><defs><style>.cls-1{fill:#888;fill-rule:evenodd;}</style></defs><g id="Layer_2" data-name="Layer 2"><g id="Layer_1-2" data-name="Layer 1"><path class="cls-1" d="M196,0C84.26,0,0,88.27,0,205.33a46.59,46.59,0,0,0,43.07,46.31L168,345.33h0a9.33,9.33,0,0,0-9.34,9.34H112a28,28,0,0,0-28,28V532a28,28,0,0,0,28,28H280a28,28,0,0,0,28-28V382.67a27.87,27.87,0,0,0-4.57-15.3v-.59H303a28,28,0,0,0-23-12.11H233.33a9.32,9.32,0,0,0-9.33-9.34h0l124.93-93.69A46.59,46.59,0,0,0,392,205.33h0C392,88.27,307.74,0,196,0Zm80.33,536.67H257.67a9.33,9.33,0,1,1,0-18.66h18.66a9.33,9.33,0,1,1,0,18.66ZM239,484h37.33a9.34,9.34,0,1,1,0,18.67H239A9.34,9.34,0,0,1,239,484ZM220,25.16a67.48,67.48,0,0,1,7.57,4.7h0c.25.17.5.39.74.57a85.69,85.69,0,0,1,7.05,5.83c.3.28.62.53.92.82,2.33,2.19,4.61,4.58,6.85,7.09.45.5.9,1,1.33,1.51,2.18,2.53,4.32,5.19,6.39,8,.39.53.76,1.08,1.15,1.61,2.13,2.95,4.22,6,6.24,9.2l.25.42c2,3.15,3.86,6.43,5.69,9.78.34.61.68,1.2,1,1.81,1.8,3.33,3.51,6.74,5.18,10.23.36.76.71,1.5,1.06,2.26,1.65,3.55,3.24,7.14,4.76,10.81l.72,1.8q2.19,5.43,4.19,11l.42,1.12c1.36,3.86,2.64,7.77,3.86,11.69.24.79.49,1.56.73,2.35q1.74,5.75,3.25,11.53c.2.79.4,1.56.59,2.33,1,4,1.95,7.95,2.79,11.89.08.39.16.77.23,1.15q1.2,5.79,2.16,11.49c.09.52.19,1.06.27,1.59.63,3.87,1.15,7.71,1.61,11.5l.25,2.18c.41,3.74.74,7.44,1,11.06,0,.6.06,1.19.1,1.78.2,3.78.34,7.51.34,11.11a28,28,0,1,1-56,0c0-.06,0-.27,0-.59,0-.14,0-.29,0-.48,0-.36,0-.8,0-1.32v-.45c0-.72,0-1.58-.06-2.58v-.16c0-1.12-.06-2.38-.1-3.81v-.14c0-1.24-.08-2.61-.12-4.06,0-.42,0-.84-.05-1.27,0-1.28-.1-2.63-.14-4.05,0-.42,0-.82-.05-1.26-.07-1.85-.15-3.77-.23-5.82h0c-.09-2.08-.2-4.29-.31-6.56l-.06-1.31c-.09-1.84-.19-3.73-.29-5.65,0-.63-.07-1.25-.11-1.87-.11-1.94-.22-3.91-.34-5.94,0-.55-.07-1.09-.1-1.65-.16-2.62-.34-5.29-.53-8,0,0,0,0,0-.07-.18-2.62-.38-5.31-.59-8l-.15-2q-.25-3.19-.54-6.45c-.06-.81-.13-1.61-.2-2.42-.22-2.51-.46-5-.7-7.58l-.09-1c-.28-3-.59-5.92-.91-8.89-.07-.58-.13-1.15-.19-1.72q-.39-3.53-.81-7.07c-.1-.87-.21-1.73-.32-2.6-.27-2.16-.53-4.33-.83-6.48-.11-.82-.21-1.64-.32-2.46-.79-5.83-1.67-11.6-2.63-17.24-.13-.79-.27-1.57-.41-2.36-.35-2-.72-4-1.09-6-.18-.91-.34-1.8-.52-2.7-.4-2-.81-4.06-1.24-6-.14-.67-.28-1.35-.43-2q-.85-3.91-1.79-7.65c-.13-.52-.27-1-.4-1.54-.51-2-1-3.86-1.54-5.73l-.69-2.33c-.47-1.61-1-3.17-1.46-4.7-.24-.73-.48-1.47-.73-2.19-.61-1.8-1.25-3.54-1.9-5.21-.13-.33-.25-.7-.39-1l0-.07ZM93.68,194.23c0-.6,0-1.19.09-1.79.23-3.62.56-7.32,1-11.06L95,179.2q.68-5.69,1.6-11.5c.08-.53.19-1.06.28-1.59.64-3.8,1.35-7.63,2.16-11.49.07-.38.14-.76.22-1.14.84-3.95,1.79-7.92,2.79-11.89.2-.78.39-1.55.6-2.34q1.51-5.77,3.24-11.53l.74-2.35c1.22-3.92,2.5-7.83,3.86-11.69l.42-1.12q2-5.55,4.19-11c.24-.59.47-1.2.72-1.8,1.52-3.67,3.11-7.26,4.76-10.81.34-.75.7-1.5,1-2.25q2.5-5.25,5.18-10.24c.33-.61.67-1.2,1-1.81,1.84-3.34,3.73-6.63,5.69-9.78l.26-.42c2-3.2,4.1-6.25,6.24-9.2.38-.53.76-1.08,1.15-1.6,2.07-2.79,4.21-5.45,6.38-8,.44-.51.89-1,1.34-1.51,2.24-2.51,4.51-4.9,6.85-7.09.3-.29.61-.54.91-.82a87.52,87.52,0,0,1,7.06-5.83c.24-.18.48-.4.74-.57A67.58,67.58,0,0,1,172,25.16l.77-.42,0,.07c-.13.32-.25.69-.38,1-.65,1.66-1.29,3.4-1.91,5.2-.25.72-.48,1.46-.72,2.19-.5,1.53-1,3.09-1.46,4.7-.23.78-.47,1.55-.69,2.33Q166.79,43.07,166,46c-.13.51-.27,1-.4,1.53-.63,2.5-1.23,5-1.79,7.65-.15.67-.29,1.35-.43,2q-.64,3-1.24,6c-.18.9-.35,1.79-.53,2.7-.37,2-.74,4-1.09,6-.14.79-.28,1.57-.41,2.36-1,5.65-1.83,11.42-2.62,17.24-.12.82-.22,1.64-.33,2.46-.29,2.16-.56,4.32-.83,6.48-.1.87-.21,1.73-.32,2.6-.28,2.37-.55,4.72-.8,7.08-.07.57-.13,1.14-.2,1.71-.31,3-.62,5.94-.9,8.89,0,.33-.06.65-.1,1-.24,2.55-.47,5.07-.69,7.58-.07.81-.15,1.61-.21,2.43-.19,2.16-.36,4.31-.53,6.44-.06.67-.1,1.33-.16,2-.21,2.72-.4,5.41-.59,8,0,0,0,.06,0,.07-.18,2.74-.36,5.41-.52,8,0,.56-.07,1.1-.1,1.65q-.18,3-.35,5.94c0,.63-.06,1.24-.1,1.87-.1,1.93-.2,3.81-.29,5.65,0,.44-.05.89-.07,1.32-.11,2.27-.21,4.47-.3,6.55h0c-.09,2-.16,4-.24,5.82,0,.44,0,.84,0,1.26,0,1.42-.11,2.77-.14,4.06,0,.42,0,.84-.05,1.26,0,1.45-.09,2.82-.12,4.06v.14c0,1.43-.08,2.69-.1,3.81v.16c0,1-.05,1.86-.06,2.58,0,.17,0,.29,0,.45,0,.52,0,1,0,1.32,0,.2,0,.34,0,.48,0,.32,0,.54,0,.59a28,28,0,0,1-56,0c0-3.6.14-7.32.35-11.1Zm121,217.67-13.48-9a9.27,9.27,0,0,0-10.36,0h0l-13.49,9V364h37.33ZM196,343,67.68,246.76A46.56,46.56,0,0,0,84,233h0a46.24,46.24,0,0,0,74.67,0,46.23,46.23,0,0,0,74.66,0A46.24,46.24,0,0,0,308,233a46.59,46.59,0,0,0,16.32,13.72Z"/></g></g></svg>